<?xml version="1.0" encoding="UTF-8"?>
<svg id="Camada_2" data-name="Camada 2" xmlns="http://www.w3.org/2000/svg" viewBox="0 0 960 576">
  <defs>
    <style>
      .cls-1 {
        fill: #26315c;
      }

      .cls-2 {
        fill: #26315d;
      }

      .cls-3 {
        fill: #c93036;
      }

      .cls-4 {
        fill: #fffefe;
      }

      .cls-5 {
        fill: #c92f36;
      }
    </style>
  </defs>
  <g id="Camada_1-2" data-name="Camada 1">
    <g>
      <polygon class="cls-3" points="537.44 0 537.44 229.6 959 229.6 959 345.4 537.44 345.4 537.44 575 421.56 575 421.56 345.4 0 345.4 0 229.6 421.57 229.61 421.56 0 537.44 0"/>
      <g>
        <g>
          <polygon class="cls-1" points="846.12 0 575.41 162.72 575.4 0 846.12 0"/>
          <polygon class="cls-5" points="958 0 639.83 191.67 575.4 191.67 575.56 184.84 884.08 0 958 0"/>
          <polygon class="cls-1" points="959 67.88 959 191.67 752.22 191.67 959 67.88"/>
        </g>
        <g>
          <polygon class="cls-4" points="112.88 0 383.59 162.72 383.6 0 421.56 0 421.57 229.61 0 229.6 0 191.67 206.78 191.66 0 66.88 0 44.92 245.24 191.67 318.67 191.67 1 0 112.88 0"/>
          <polygon class="cls-1" points="383.6 0 383.59 162.72 112.88 0 383.6 0"/>
          <polygon class="cls-2" points="0 66.88 206.78 191.66 0 191.67 0 66.88"/>
          <polygon class="cls-5" points="1 0 318.67 191.67 245.24 191.67 0 44.92 0 0 1 0"/>
        </g>
      </g>
      <g>
        <path class="cls-4" d="M575.4,0v162.72S846.12,0,846.12,0h37.96l-308.52,184.84-.16,6.83h64.43L958,0h2v576H0v-67.88l206.78-124.77H0v-37.94h421.56v229.6h115.88v-229.6h421.56v-115.8h-421.56V0h37.96ZM959,67.88l-206.78,123.79h206.78v-123.79ZM383.6,383.33h-64.43L1,575h73.42l309.02-184.84.16-6.83ZM959,575v-44.42l-245.24-147.24h-73.42l318.67,191.67ZM959,383.33h-206.78l206.78,123.79v-123.79ZM383.6,575v-162.72l-270.72,162.72h270.72ZM846.12,575l-270.72-162.72v162.72h270.72Z"/>
        <g>
          <polygon class="cls-2" points="0 383.33 206.78 383.34 0 508.12 0 383.33"/>
          <polygon class="cls-1" points="383.6 575 112.88 575 383.6 412.28 383.6 575"/>
          <polygon class="cls-5" points="383.6 383.33 383.44 390.17 74.42 575 1 575 319.17 383.33 383.6 383.33"/>
        </g>
        <g>
          <polygon class="cls-1" points="846.12 575 575.4 575 575.4 412.28 846.12 575"/>
          <polygon class="cls-1" points="959 383.33 959 507.12 752.22 383.33 959 383.33"/>
          <polygon class="cls-5" points="959 575 640.33 383.33 713.76 383.33 959 530.58 959 575"/>
        </g>
      </g>
    </g>
  </g>
</svg>